<svg width="1200" height="865" xmlns="http://www.w3.org/2000/svg">
 <!-- Created with Method Draw - http://github.com/duopixel/Method-Draw/ -->
 <defs>
  <filter id="svg_6_blur">
   <feGaussianBlur stdDeviation="0" in="SourceGraphic"/>
  </filter>
  <linearGradient y2="0" x2="1" y1="0" x1="0" id="svg_7">
   <stop offset="0" stop-opacity="0.996094" stop-color="#0fffff"/>
   <stop offset="1" stop-opacity="0.996094" stop-color="#8a00ed"/>
  </linearGradient>
 </defs>
 <g>
  <title>background</title>
  <rect fill="none" id="canvas_background" height="867" width="1202" y="-1" x="-1"/>
  <g display="none" overflow="visible" y="0" x="0" height="100%" width="100%" id="canvasGrid">
   <rect fill="url(#gridpattern)" stroke-width="0" y="0" x="0" height="100%" width="100%"/>
  </g>
 </g>
 <g>
  <title>Layer 1</title>
  <path filter="url(#svg_6_blur)" id="svg_6" d="m816.5,62c0,0 -47,46 -41,51c6,5 33,78 46,83c13,5 26,-8 45,8c19,16 24,19 22,27c-2,8 -26,75 -29,84c-3,9 13,48 -2,53c-15,5 7,24 6.5,24c0.5,0 -23.5,70 -21.5,78c2,8 2,17 -1,22c-3,5 -39,34 -39,50c0,16 -12,19 -8,24c4,5 -12,57 -20,59c-8,2 -39,64 -32,72c7,8 -20,58 -20.5,58c0.5,0 -1.5,13 7.5,20" opacity="0.5" stroke-opacity="null" stroke-width="2" stroke="#000" fill="url(#svg_7)"/>
 </g>
</svg>